<svg width="2797" height="677" viewBox="0 0 2797 677" fill="none" xmlns="http://www.w3.org/2000/svg">
<g clip-path="url(#clip0_5_38)">
<circle cx="329.83" cy="340.541" r="321.859" fill="#B18009"/>
<rect x="257.973" y="173.304" width="73" height="350" rx="3" transform="rotate(10 257.973 173.304)" fill="white"/>
<rect x="317.061" y="183.723" width="177" height="63" rx="3" transform="rotate(10 317.061 183.723)" fill="white"/>
<rect x="285.91" y="340.682" width="153" height="63" rx="3" transform="rotate(10 285.91 340.682)" fill="white"/>
<rect x="219.569" y="260.682" width="139" height="38" rx="3" transform="rotate(10 219.569 260.682)" fill="white"/>
<path d="M844.47 189.682L1049.47 189.682L1042.47 230.682L884.47 230.682L865.97 337.682L996.97 337.682L989.97 376.682L858.97 376.682L830.47 539.682L782.97 539.682L844.47 189.682ZM1081.06 449.682C1080.4 454.015 1079.9 458.015 1079.56 461.682C1079.23 465.015 1079.06 468.015 1079.06 470.682C1079.06 482.015 1082.4 490.849 1089.06 497.182C1096.06 503.515 1105.23 506.682 1116.56 506.682C1122.23 506.682 1127.9 506.015 1133.56 504.682C1139.23 503.349 1144.4 501.515 1149.06 499.182L1153.56 535.682C1147.56 538.682 1140.56 541.015 1132.56 542.682C1124.56 544.682 1115.9 545.682 1106.56 545.682C1086.56 545.682 1069.4 540.015 1055.06 528.682C1041.06 517.015 1034.06 499.515 1034.06 476.182C1034.06 467.515 1034.73 459.015 1036.06 450.682L1085.06 169.682L1130.06 169.682L1081.06 449.682ZM1295.99 545.682C1271.32 545.682 1249.99 540.682 1231.99 530.682C1213.99 520.682 1199.99 506.849 1189.99 489.182C1180.32 471.182 1175.49 450.849 1175.49 428.182C1175.49 399.182 1181.32 373.015 1192.99 349.682C1204.99 326.349 1221.66 307.849 1242.99 294.182C1264.32 280.515 1289.49 273.682 1318.49 273.682C1343.16 273.682 1364.49 278.682 1382.49 288.682C1400.49 298.682 1414.32 312.515 1423.99 330.182C1433.99 347.849 1438.99 368.182 1438.99 391.182C1438.99 419.849 1433.16 446.015 1421.49 469.682C1409.82 493.015 1393.16 511.515 1371.49 525.182C1350.16 538.849 1324.99 545.682 1295.99 545.682ZM1297.49 505.682C1317.49 505.682 1334.49 500.849 1348.49 491.182C1362.82 481.182 1373.82 467.849 1381.49 451.182C1389.16 434.515 1392.99 415.849 1392.99 395.182C1392.99 379.849 1389.99 366.182 1383.99 354.182C1377.99 341.849 1369.32 332.015 1357.99 324.682C1346.66 317.349 1332.99 313.682 1316.99 313.682C1297.32 313.682 1280.32 318.682 1265.99 328.682C1251.66 338.349 1240.66 351.515 1232.99 368.182C1225.32 384.849 1221.49 403.515 1221.49 424.182C1221.49 439.182 1224.49 452.849 1230.49 465.182C1236.49 477.515 1245.16 487.349 1256.49 494.682C1267.82 502.015 1281.49 505.682 1297.49 505.682ZM1540.78 169.682L1585.78 169.682L1558.78 323.182C1567.78 307.849 1579.62 295.849 1594.28 287.182C1608.95 278.182 1625.45 273.682 1643.78 273.682C1658.12 273.682 1670.78 276.682 1681.78 282.682C1693.12 288.682 1701.95 296.849 1708.28 307.182C1714.62 317.182 1717.78 328.349 1717.78 340.682C1717.78 367.015 1708.78 386.515 1690.78 399.182C1673.12 411.515 1650.62 417.682 1623.28 417.682C1621.62 417.682 1619.95 417.682 1618.28 417.682C1616.62 417.682 1614.62 417.515 1612.28 417.182L1654.78 482.182C1660.45 490.849 1666.78 497.182 1673.78 501.182C1681.12 505.182 1690.95 507.182 1703.28 507.182L1687.78 542.182C1672.45 542.182 1659.45 540.015 1648.78 535.682C1638.12 531.015 1628.62 521.515 1620.28 507.182L1558.78 401.182L1563.28 386.682C1568.28 389.015 1574.62 391.015 1582.28 392.682C1589.95 394.015 1598.62 394.682 1608.28 394.682C1629.95 394.682 1646.28 390.182 1657.28 381.182C1668.62 371.849 1674.28 360.015 1674.28 345.682C1674.28 335.349 1670.45 326.682 1662.78 319.682C1655.45 312.349 1645.45 308.682 1632.78 308.682C1623.45 308.682 1612.62 311.682 1600.28 317.682C1588.28 323.349 1576.95 333.515 1566.28 348.182C1555.62 362.849 1547.95 383.515 1543.28 410.182L1520.78 539.682L1475.78 539.682L1540.78 169.682ZM1825.77 235.182C1816.43 235.182 1809.27 232.515 1804.27 227.182C1799.6 221.515 1797.27 215.015 1797.27 207.682C1797.27 197.015 1800.6 188.515 1807.27 182.182C1813.93 175.515 1822.27 172.182 1832.27 172.182C1841.6 172.182 1848.6 175.015 1853.27 180.682C1858.27 186.015 1860.77 192.349 1860.77 199.682C1860.77 210.015 1857.43 218.515 1850.77 225.182C1844.1 231.849 1835.77 235.182 1825.77 235.182ZM1792.27 539.682L1747.27 539.682L1792.77 279.682L1837.77 279.682L1792.27 539.682Z" fill="#B18009"/>
<path d="M2072.2 332.182C2063.86 326.849 2054.86 322.515 2045.2 319.182C2035.53 315.515 2024.86 313.682 2013.2 313.682C1994.86 313.682 1978.7 318.515 1964.7 328.182C1951.03 337.849 1940.36 351.015 1932.7 367.682C1925.03 384.015 1921.2 402.515 1921.2 423.182C1921.2 448.515 1927.53 468.682 1940.2 483.682C1953.2 498.349 1970.53 505.682 1992.2 505.682C2004.86 505.682 2016.03 504.182 2025.7 501.182C2035.36 498.182 2044.2 494.682 2052.2 490.682L2057.7 530.182C2049.36 533.849 2039.2 537.349 2027.2 540.682C2015.53 544.015 2001.36 545.682 1984.7 545.682C1963.03 545.682 1943.86 540.849 1927.2 531.182C1910.86 521.515 1898.03 508.015 1888.7 490.682C1879.7 473.015 1875.2 452.515 1875.2 429.182C1875.2 401.182 1880.86 375.515 1892.2 352.182C1903.86 328.515 1920.2 309.515 1941.2 295.182C1962.53 280.849 1987.7 273.682 2016.7 273.682C2032.36 273.682 2046.2 275.682 2058.2 279.682C2070.53 283.349 2081.36 288.015 2090.7 293.682L2072.2 332.182ZM2218.35 545.682C2193.69 545.682 2172.35 540.682 2154.35 530.682C2136.35 520.682 2122.35 506.849 2112.35 489.182C2102.69 471.182 2097.85 450.849 2097.85 428.182C2097.85 399.182 2103.69 373.015 2115.35 349.682C2127.35 326.349 2144.02 307.849 2165.35 294.182C2186.69 280.515 2211.85 273.682 2240.85 273.682C2265.52 273.682 2286.85 278.682 2304.85 288.682C2322.85 298.682 2336.69 312.515 2346.35 330.182C2356.35 347.849 2361.35 368.182 2361.35 391.182C2361.35 419.849 2355.52 446.015 2343.85 469.682C2332.19 493.015 2315.52 511.515 2293.85 525.182C2272.52 538.849 2247.35 545.682 2218.35 545.682ZM2219.85 505.682C2239.85 505.682 2256.85 500.849 2270.85 491.182C2285.19 481.182 2296.19 467.849 2303.85 451.182C2311.52 434.515 2315.35 415.849 2315.35 395.182C2315.35 379.849 2312.35 366.182 2306.35 354.182C2300.35 341.849 2291.69 332.015 2280.35 324.682C2269.02 317.349 2255.35 313.682 2239.35 313.682C2219.69 313.682 2202.69 318.682 2188.35 328.682C2174.02 338.349 2163.02 351.515 2155.35 368.182C2147.69 384.849 2143.85 403.515 2143.85 424.182C2143.85 439.182 2146.85 452.849 2152.85 465.182C2158.85 477.515 2167.52 487.349 2178.85 494.682C2190.19 502.015 2203.85 505.682 2219.85 505.682ZM2476.65 235.182C2467.31 235.182 2460.15 232.515 2455.15 227.182C2450.48 221.515 2448.15 215.015 2448.15 207.682C2448.15 197.015 2451.48 188.515 2458.15 182.182C2464.81 175.515 2473.15 172.182 2483.15 172.182C2492.48 172.182 2499.48 175.015 2504.15 180.682C2509.15 186.015 2511.65 192.349 2511.65 199.682C2511.65 210.015 2508.31 218.515 2501.65 225.182C2494.98 231.849 2486.65 235.182 2476.65 235.182ZM2443.15 539.682L2398.15 539.682L2443.65 279.682L2488.65 279.682L2443.15 539.682ZM2689.58 313.182C2677.91 313.182 2665.24 317.515 2651.58 326.182C2637.91 334.849 2625.24 348.349 2613.58 366.682C2602.24 384.682 2594.08 407.849 2589.08 436.182L2571.08 539.682L2526.08 539.682L2571.58 279.682L2615.08 279.682L2604.08 339.682C2614.41 319.682 2628.24 303.682 2645.58 291.682C2663.24 279.682 2681.74 273.682 2701.08 273.682C2723.74 273.682 2741.91 280.682 2755.58 294.682C2769.24 308.349 2776.08 325.182 2776.08 345.182C2776.08 353.515 2775.08 364.015 2773.08 376.682L2744.58 539.682L2699.58 539.682L2727.08 384.182C2728.74 376.182 2729.74 370.349 2730.08 366.682C2730.41 362.682 2730.58 359.015 2730.58 355.682C2730.58 342.682 2726.74 332.349 2719.08 324.682C2711.74 317.015 2701.91 313.182 2689.58 313.182Z" fill="white"/>
</g>
<defs>
<clipPath id="clip0_5_38">
<rect width="2797" height="677" fill="white"/>
</clipPath>
</defs>
</svg>
